<?xml version="1.0" encoding="utf-8"?>
<!-- Generator: Adobe Illustrator 15.0.0, SVG Export Plug-In . SVG Version: 6.00 Build 0)  -->
<!DOCTYPE svg PUBLIC "-//W3C//DTD SVG 1.1//EN" "http://www.w3.org/Graphics/SVG/1.1/DTD/svg11.dtd">
<svg version="1.1" id="Icons_outlines" xmlns="http://www.w3.org/2000/svg" xmlns:xlink="http://www.w3.org/1999/xlink" x="0px"
	 y="0px" width="335.464px" height="353.647px" viewBox="0 0 335.464 353.647" enable-background="new 0 0 335.464 353.647"
	 xml:space="preserve">
<g>
	<path fill="#666666" d="M168.76,3.848c-70.11,0-126.945,56.833-126.945,126.943c0,27.104,8.5,52.218,22.972,72.838L168.76,353.553
		l103.971-149.924c14.472-20.62,22.972-45.733,22.972-72.838C295.703,60.681,238.868,3.848,168.76,3.848z M168.76,187.695
		c-31.429,0-56.907-25.477-56.907-56.904c0-31.429,25.479-56.905,56.907-56.905c31.427,0,56.905,25.477,56.905,56.905
		C225.666,162.219,200.187,187.695,168.76,187.695z"/>
</g>
</svg>
